<svg xmlns="http://www.w3.org/2000/svg" width="1000" height="360" viewBox="0 0 1000 360">
<rect width="100%" height="100%" fill="#f8fafc"/>
<text x="32" y="44" font-family="Arial" font-size="26" font-weight="700" fill="#111827">PDF Toolkit QA Result Summary</text>
<rect x="32" y="78" width="280" height="92" rx="8" fill="#ffffff" stroke="#d1d5db"/>
<text x="50" y="114" font-family="Arial" font-size="26" font-weight="700" fill="#2563eb">30</text>
<text x="50" y="144" font-family="Arial" font-size="14" fill="#374151">Backend feature cases</text>
<rect x="344" y="78" width="280" height="92" rx="8" fill="#ffffff" stroke="#d1d5db"/>
<text x="362" y="114" font-family="Arial" font-size="26" font-weight="700" fill="#16a34a">0</text>
<text x="362" y="144" font-family="Arial" font-size="14" fill="#374151">Backend API failures</text>
<rect x="656" y="78" width="280" height="92" rx="8" fill="#ffffff" stroke="#d1d5db"/>
<text x="674" y="114" font-family="Arial" font-size="26" font-weight="700" fill="#9333ea">56.54 MB</text>
<text x="674" y="144" font-family="Arial" font-size="14" fill="#374151">Largest generated PDF</text>
<rect x="32" y="198" width="280" height="92" rx="8" fill="#ffffff" stroke="#d1d5db"/>
<text x="50" y="234" font-family="Arial" font-size="26" font-weight="700" fill="#ea580c">8/8 pass</text>
<text x="50" y="264" font-family="Arial" font-size="14" fill="#374151">Concurrent uploads</text>
<rect x="344" y="198" width="280" height="92" rx="8" fill="#ffffff" stroke="#d1d5db"/>
<text x="362" y="234" font-family="Arial" font-size="26" font-weight="700" fill="#16a34a">Pass</text>
<text x="362" y="264" font-family="Arial" font-size="14" fill="#374151">Web build</text>
<rect x="656" y="198" width="280" height="92" rx="8" fill="#ffffff" stroke="#d1d5db"/>
<text x="674" y="234" font-family="Arial" font-size="26" font-weight="700" fill="#16a34a">Pass</text>
<text x="674" y="264" font-family="Arial" font-size="14" fill="#374151">Expo Android export</text>
</svg>